<?xml version="1.0" encoding="UTF-8" standalone="no" ?>
<!DOCTYPE svg PUBLIC "-//W3C//DTD SVG 1.1//EN" "http://www.w3.org/Graphics/SVG/1.1/DTD/svg11.dtd">
<svg xmlns="http://www.w3.org/2000/svg" xmlns:xlink="http://www.w3.org/1999/xlink" version="1.1" width="635" height="635" viewBox="0 0 635 635" xml:space="preserve">
<desc>Created with Fabric.js 4.6.0</desc>
<defs>
</defs>
<g transform="matrix(1.25 0 0 1.25 317.5 317.5)" id="YRnDegdN5s7jy6H6RemdQ"  >
<g style="" vector-effect="non-scaling-stroke"   >
		<g transform="matrix(11.32 0 0 11.71 -11.76 6.28)" id="75bV98srhhJiU350pmvJr"  >
<path style="stroke: none; stroke-width: 1; stroke-dasharray: none; stroke-linecap: butt; stroke-dashoffset: 0; stroke-linejoin: miter; stroke-miterlimit: 10; fill: rgb(245,148,0); fill-rule: nonzero; opacity: 1;" vector-effect="non-scaling-stroke"  transform=" translate(-239.99, -179)" d="M 260.2 176.7 L 252 184.7 L 253.8 196 C 254 197 253.60000000000002 198 252.8 198.6 C 252.4 198.9 251.8 199.1 251.3 199.1 C 250.9 199.1 250.5 199 250.10000000000002 198.79999999999998 L 240.00000000000003 193.49999999999997 L 229.80000000000004 198.79999999999998 C 229.40000000000003 198.99999999999997 229.00000000000003 199.1 228.60000000000005 199.1 C 228.10000000000005 199.1 227.60000000000005 198.9 227.10000000000005 198.6 C 226.30000000000004 198 225.90000000000006 197 226.10000000000005 196 L 228.00000000000006 184.8 L 219.80000000000007 176.8 C 219.00000000000006 176.10000000000002 218.80000000000007 175.10000000000002 219.10000000000008 174.10000000000002 C 219.4000000000001 173.10000000000002 220.20000000000007 172.40000000000003 221.20000000000007 172.3 L 232.50000000000009 170.70000000000002 L 237.60000000000008 160.4 C 238.10000000000008 159.5 239.00000000000009 158.9 240.00000000000009 158.9 C 241.00000000000009 158.9 242.00000000000009 159.5 242.4000000000001 160.4 L 247.50000000000009 170.70000000000002 L 258.80000000000007 172.3 C 259.80000000000007 172.5 260.6000000000001 173.10000000000002 260.9000000000001 174.10000000000002 C 261.2000000000001 175.00000000000003 260.9000000000001 176.10000000000002 260.2000000000001 176.70000000000002 z" stroke-linecap="round" />
</g>
		<g transform="matrix(11.33 0 0 11.33 11.7 -13.96)" id="ZbM0SApATi9SaajuyxN5J"  >
<path style="stroke: none; stroke-width: 1; stroke-dasharray: none; stroke-linecap: butt; stroke-dashoffset: 0; stroke-linejoin: miter; stroke-miterlimit: 10; fill: rgb(245,183,0); fill-rule: nonzero; opacity: 1;" vector-effect="non-scaling-stroke"  transform=" translate(-239.99, -179)" d="M 260.2 176.7 L 252 184.7 L 253.8 196 C 254 197 253.60000000000002 198 252.8 198.6 C 252.4 198.9 251.8 199.1 251.3 199.1 C 250.9 199.1 250.5 199 250.10000000000002 198.79999999999998 L 240.00000000000003 193.49999999999997 L 229.80000000000004 198.79999999999998 C 229.40000000000003 198.99999999999997 229.00000000000003 199.1 228.60000000000005 199.1 C 228.10000000000005 199.1 227.60000000000005 198.9 227.10000000000005 198.6 C 226.30000000000004 198 225.90000000000006 197 226.10000000000005 196 L 228.00000000000006 184.8 L 219.80000000000007 176.8 C 219.00000000000006 176.10000000000002 218.80000000000007 175.10000000000002 219.10000000000008 174.10000000000002 C 219.4000000000001 173.10000000000002 220.20000000000007 172.40000000000003 221.20000000000007 172.3 L 232.50000000000009 170.70000000000002 L 237.60000000000008 160.4 C 238.10000000000008 159.5 239.00000000000009 158.9 240.00000000000009 158.9 C 241.00000000000009 158.9 242.00000000000009 159.5 242.4000000000001 160.4 L 247.50000000000009 170.70000000000002 L 258.80000000000007 172.3 C 259.80000000000007 172.5 260.6000000000001 173.10000000000002 260.9000000000001 174.10000000000002 C 261.2000000000001 175.00000000000003 260.9000000000001 176.10000000000002 260.2000000000001 176.70000000000002 z" stroke-linecap="round" />
</g>
</g>
</g>
</svg>